<svg width="28" height="28" viewBox="0 0 28 28" fill="none" xmlns="http://www.w3.org/2000/svg">
<path d="M1.31738 15.0494L6.8984 16.4439C8.25331 16.7824 8.93077 16.9517 9.48201 17.3044C9.9696 17.6163 10.3837 18.0304 10.6956 18.518C11.0483 19.0692 11.2176 19.7467 11.5561 21.1016L12.9506 26.6826C13.0719 27.1625 13.5043 27.5 14 27.5C14.4957 27.5 14.9281 27.1625 15.0494 26.6826L16.4439 21.1016C16.7824 19.7467 16.9517 19.0692 17.3044 18.518C17.6163 18.0304 18.0304 17.6163 18.518 17.3044C19.0692 16.9517 19.7467 16.7824 21.1016 16.4439L26.6826 15.0494C27.1625 14.9281 27.5 14.4957 27.5 14C27.5 13.5043 27.1625 13.0719 26.6826 12.9506L21.1016 11.5561C19.7467 11.2176 19.0692 11.0483 18.518 10.6956C18.0304 10.3837 17.6163 9.9696 17.3044 9.48201C16.9517 8.93077 16.7824 8.25331 16.4439 6.8984L15.0494 1.31738C14.9281 0.8375 14.4957 0.5 14 0.5C13.5043 0.5 13.0719 0.8375 12.9506 1.31738L11.5561 6.8984C11.2176 8.25331 11.0483 8.93077 10.6956 9.48201C10.3837 9.9696 9.9696 10.3837 9.48201 10.6956C8.93077 11.0483 8.25331 11.2176 6.8984 11.5561L1.31738 12.9506C0.8375 13.0719 0.5 13.5043 0.5 14C0.5 14.4957 0.8375 14.9281 1.31738 15.0494Z" fill="url(#paint0_linear_507_1211)"/>
<defs>
<linearGradient id="paint0_linear_507_1211" x1="0.5" y1="14" x2="27.5" y2="14" gradientUnits="userSpaceOnUse">
<stop stop-color="#1CE7FD"/>
<stop offset="1" stop-color="#365AE5"/>
</linearGradient>
</defs>
</svg>
